<?xml version="1.0" encoding="utf-8"?>
<!-- Generator: Adobe Illustrator 27.8.1, SVG Export Plug-In . SVG Version: 6.00 Build 0)  -->
<svg version="1.1" id="Шар_1" xmlns="http://www.w3.org/2000/svg" xmlns:xlink="http://www.w3.org/1999/xlink" x="0px" y="0px"
	 viewBox="0 0 40 40" style="enable-background:new 0 0 40 40;" xml:space="preserve">
<style type="text/css">
	.st0{fill:#B2B2B2;}
	.st1{fill:#EDEDED;}
	.st2{fill:#575756;}
	.st3{fill:#5453D2;stroke:#000000;stroke-width:5.755514e-02;stroke-miterlimit:10;}
	.st4{fill:none;}
	.st5{opacity:0.15;fill:url(#SVGID_1_);}
	.st6{opacity:0.5;fill:url(#SVGID_00000159471557245897103370000017507682076507010482_);}
	.st7{fill:url(#SVGID_00000100384139291245794290000013290914147165965451_);}
	.st8{opacity:3.000000e-02;fill:none;stroke:#FFFFFF;stroke-width:6.0055;stroke-miterlimit:10;}
	.st9{opacity:0.15;fill:url(#SVGID_00000171712554595532030240000015367814642019228093_);}
	.st10{opacity:0.5;fill:url(#SVGID_00000065066072275797230960000009281721845698953391_);}
	.st11{fill:url(#SVGID_00000062179478703786904970000004707599931915668132_);}
	.st12{opacity:3.000000e-02;fill:none;stroke:#FFFFFF;stroke-width:5.3392;stroke-miterlimit:10;}
	.st13{opacity:0.15;fill:url(#SVGID_00000101073822302041480600000006427993550075823033_);}
	.st14{opacity:0.5;fill:url(#SVGID_00000099650724227843122650000007907037546007203489_);}
	.st15{fill:url(#SVGID_00000168826534707348490130000007780820189260998812_);}
	.st16{opacity:3.000000e-02;fill:none;stroke:#FFFFFF;stroke-width:2.8266;stroke-miterlimit:10;}
	.st17{opacity:0.15;fill:url(#SVGID_00000006681833224080502810000012762958406899040404_);}
	.st18{opacity:0.5;fill:url(#SVGID_00000048475458100070070170000011320572255539612069_);}
	.st19{fill:url(#SVGID_00000136399137880510683680000011550908343409609638_);}
	.st20{opacity:3.000000e-02;fill:none;stroke:#FFFFFF;stroke-width:7.6749;stroke-miterlimit:10;}
	.st21{opacity:0.15;fill:url(#SVGID_00000124154367674516080700000015910807834769368961_);}
	.st22{opacity:0.5;fill:url(#SVGID_00000082348581300283843390000015469698751513196960_);}
	.st23{fill:url(#SVGID_00000160167814026070705030000010880210045250941624_);}
	.st24{opacity:3.000000e-02;fill:none;stroke:#FFFFFF;stroke-width:10.465;stroke-miterlimit:10;}
</style>
<g>
	<g>
		<path class="st0" d="M65,52.8c0,0.9-0.7,1.8-2.1,1.8c-0.7,0-1.4,0-2.1-0.9l-45-40.6l3.6-2.8l45,40.6C65,51.9,65,51.9,65,52.8z"/>
		<path class="st0" d="M70,67.6c0,0.9-0.7,1.8-1.4,1.8s-0.7,0-1.4,0l0,0L11.4,17.7l2.9-1.8L70,66.7V67.6L70,67.6z"/>
		<g>
			<path class="st1" d="M17.9,12.2c20.7,18.5,44.3,41.6,44.3,41.6"/>
			<path class="st2" d="M18.6,12.2c7.1,6.5,26.4,24,33.6,31.4c3.6,3.7,7.9,6.5,10.7,10.2h-0.7C49.3,42.6,30,24.2,17.1,13.1
				C17.1,13.1,18.6,12.2,18.6,12.2L18.6,12.2z"/>
		</g>
		<g>
			<path class="st1" d="M12.1,16.8c26.4,24,56.4,51.7,56.4,51.7"/>
			<path class="st2" d="M12.9,16.8c9.3,8.3,33.6,30.5,42.9,38.8c4.3,4.6,10,8.3,14.3,12.9h-0.7C52.9,54.6,28.6,31.6,12.1,16.8
				C12.1,17.7,12.9,16.8,12.9,16.8L12.9,16.8z"/>
		</g>
		<path class="st3" d="M16.4,15.9c-7.1,6.5-17.1,7.4-20.7,3.7c-1.4-1.8-2.1-3.7-2.1-5.5L-25-1.7c-2.9-2.8-5-6.5-5-10.2
			c0-7.4,7.1-13.9,15.7-13.9c4.3,0,8.6,1.8,11.4,4.6l0.7,0.9L17.1-3.5c2.1,0,4.3,0.9,5.7,1.8C26.4,2,23.6,9.4,16.4,15.9z"/>
	</g>
	<g>
		<line class="st4" x1="12" y1="15.9" x2="12.9" y2="16.6"/>
		<ellipse class="st4" cx="12" cy="15.9" rx="0.8" ry="1.1"/>
		<ellipse class="st4" cx="12" cy="15.9" rx="1" ry="1.4"/>
		<polyline class="st4" points="12,15.9 11.7,16.7 12,15.9 12.3,15 12,15.9 11.4,15.4 12,15.9 12.6,16.3 12,15.9 12.1,21.7 12,15.9 
			11.9,10 12,15.9 7.8,16 12,15.9 16.2,15.7 12,15.9 11.7,15.9 12,15.9 12.3,15.8 12,15.9 11.9,15.4 12,15.9 12.1,16.3 12,15.9 
			8.8,19.1 12,15.9 15.2,12.6 12,15.9 9.7,11.5 12,15.9 14.3,20.2 12,15.9 10.7,18.6 12,15.9 13.3,13.1 12,15.9 10,14.1 12,15.9 
			14,17.6 12,15.9 9.2,16.9 12,15.9 14.8,14.8 12,15.9 11.2,12 12,15.9 12.8,19.7 12,15.9 7.8,19.1 12,15.9 16.2,12.6 12,15.9 
			9.7,10.1 12,15.9 14.3,21.6 12,15.9 11.4,16.8 12,15.9 12.6,14.9 12,15.9 11.3,15 12,15.9 12.7,16.7 12,15.9 12.7,22.1 12,15.9 
			11.3,9.6 12,15.9 7.5,16.8 12,15.9 16.5,14.9 12,15.9 10.5,18.3 12,15.9 13.5,13.4 12,15.9 10.2,13.8 12,15.9 13.8,17.9 12,15.9 
			10.6,16.3 12,15.9 13.5,15.4 12,15.9 11.7,13.9 12,15.9 12.3,17.8 12,15.9 11.8,16.3 12,15.9 12.2,15.5 12,15.9 11.7,15.6 
			12,15.9 12.3,16.1 12,15.9 12.2,22 12,15.9 11.8,9.7 12,15.9 7.5,16.1 12,15.9 16.5,15.6 12,15.9 7.6,19 12,15.9 16.4,12.7 
			12,15.9 9.7,9.8 12,15.9 14.3,21.9 12,15.9 11.8,16 12,15.9 12.2,15.7 12,15.9 11.9,15.6 12,15.9 12.1,16.1 		"/>
		
			<radialGradient id="SVGID_1_" cx="19.2764" cy="19.5783" r="0.3656" gradientTransform="matrix(5.4217 0 0 7.4502 -92.5041 -130.0112)" gradientUnits="userSpaceOnUse">
			<stop  offset="0" style="stop-color:#FFFFFF"/>
			<stop  offset="0.73" style="stop-color:#FFFFFF"/>
			<stop  offset="1" style="stop-color:#FFFFFF"/>
		</radialGradient>
		<ellipse class="st5" cx="12" cy="15.9" rx="2" ry="2.7"/>
		
			<radialGradient id="SVGID_00000060029638081470615720000007956252569823812747_" cx="19.2764" cy="19.5783" r="0.1828" gradientTransform="matrix(5.4217 0 0 7.4502 -92.5041 -130.0112)" gradientUnits="userSpaceOnUse">
			<stop  offset="0.15" style="stop-color:#FFFFFF"/>
			<stop  offset="0.45" style="stop-color:#FFFFFF"/>
			<stop  offset="0.85" style="stop-color:#FFFFFF"/>
			<stop  offset="0.9" style="stop-color:#FFFFFF"/>
			<stop  offset="0.909" style="stop-color:#FFFFFF"/>
			<stop  offset="1" style="stop-color:#FFFFFF"/>
		</radialGradient>
		
			<ellipse style="opacity:0.5;fill:url(#SVGID_00000060029638081470615720000007956252569823812747_);" cx="12" cy="15.9" rx="1" ry="1.4"/>
		
			<radialGradient id="SVGID_00000059270997652260693700000015949478369322617254_" cx="19.2764" cy="19.5783" r="0.1523" gradientTransform="matrix(5.4217 0 0 7.4502 -92.5041 -130.0112)" gradientUnits="userSpaceOnUse">
			<stop  offset="0.15" style="stop-color:#FFFFFF"/>
			<stop  offset="0.2824" style="stop-color:#C2C2C2"/>
			<stop  offset="0.4253" style="stop-color:#888888"/>
			<stop  offset="0.5636" style="stop-color:#575757"/>
			<stop  offset="0.6936" style="stop-color:#313131"/>
			<stop  offset="0.8134" style="stop-color:#161616"/>
			<stop  offset="0.9192" style="stop-color:#060606"/>
			<stop  offset="1" style="stop-color:#000000"/>
		</radialGradient>
		<ellipse style="fill:url(#SVGID_00000059270997652260693700000015949478369322617254_);" cx="12" cy="15.9" rx="0.8" ry="1.1"/>
		<polyline class="st8" points="12,15.9 11.7,16.7 12,15.9 12.3,15 12,15.9 11.4,15.4 12,15.9 12.6,16.3 12,15.9 12.1,21.7 12,15.9 
			11.9,10 12,15.9 7.8,16 12,15.9 16.2,15.7 12,15.9 11.7,15.9 12,15.9 12.3,15.8 12,15.9 11.9,15.4 12,15.9 12.1,16.3 12,15.9 
			8.8,19.1 12,15.9 15.2,12.6 12,15.9 9.7,11.5 12,15.9 14.3,20.2 12,15.9 10.7,18.6 12,15.9 13.3,13.1 12,15.9 10,14.1 12,15.9 
			14,17.6 12,15.9 9.2,16.9 12,15.9 14.8,14.8 12,15.9 11.2,12 12,15.9 12.8,19.7 12,15.9 7.8,19.1 12,15.9 16.2,12.6 12,15.9 
			9.7,10.1 12,15.9 14.3,21.6 12,15.9 11.4,16.8 12,15.9 12.6,14.9 12,15.9 11.3,15 12,15.9 12.7,16.7 12,15.9 12.7,22.1 12,15.9 
			11.3,9.6 12,15.9 7.5,16.8 12,15.9 16.5,14.9 12,15.9 10.5,18.3 12,15.9 13.5,13.4 12,15.9 10.2,13.8 12,15.9 13.8,17.9 12,15.9 
			10.6,16.3 12,15.9 13.5,15.4 12,15.9 11.7,13.9 12,15.9 12.3,17.8 12,15.9 11.8,16.3 12,15.9 12.2,15.5 12,15.9 11.7,15.6 
			12,15.9 12.3,16.1 12,15.9 12.2,22 12,15.9 11.8,9.7 12,15.9 7.5,16.1 12,15.9 16.5,15.6 12,15.9 7.6,19 12,15.9 16.4,12.7 
			12,15.9 9.7,9.8 12,15.9 14.3,21.9 12,15.9 11.8,16 12,15.9 12.2,15.7 12,15.9 11.9,15.6 12,15.9 12.1,16.1 		"/>
	</g>
	<g>
		<line class="st4" x1="16" y1="10.3" x2="16.9" y2="10.4"/>
		<ellipse transform="matrix(0.7912 -0.6116 0.6116 0.7912 -2.9902 11.9392)" class="st4" cx="16" cy="10.3" rx="0.6" ry="1.2"/>
		<ellipse transform="matrix(0.7912 -0.6116 0.6116 0.7912 -2.9902 11.9392)" class="st4" cx="16" cy="10.3" rx="0.7" ry="1.5"/>
		<polyline class="st4" points="16,10.3 16.5,11.2 16,10.3 15.5,9.5 16,10.3 15.4,10.4 16,10.3 16.6,10.3 16,10.3 20.3,14.9 
			16,10.3 11.7,5.8 16,10.3 14.4,13.2 16,10.3 17.6,7.5 16,10.3 15.9,10.6 16,10.3 16.1,10.1 16,10.3 15.7,10.1 16,10.3 16.3,10.6 
			16,10.3 17,14.9 16,10.3 14.9,5.8 16,10.3 11.9,8.3 16,10.3 20.1,12.4 16,10.3 17.4,13.3 16,10.3 14.6,7.4 16,10.3 13.9,10.1 
			16,10.3 18.1,10.6 16,10.3 15.6,13 16,10.3 16.4,7.7 16,10.3 12.9,7.7 16,10.3 19.1,13 16,10.3 16.6,15.6 16,10.3 15.4,5.1 
			16,10.3 10.8,7.2 16,10.3 21.2,13.5 16,10.3 16.5,11.5 16,10.3 15.5,9.2 16,10.3 15.1,10.1 16,10.3 16.9,10.6 16,10.3 20.8,14.9 
			16,10.3 11.2,5.8 16,10.3 14.8,14 16,10.3 17.2,6.7 16,10.3 17.1,13.3 16,10.3 14.8,7.4 16,10.3 13.7,9.8 16,10.3 18.2,10.9 
			16,10.3 15.7,11.6 16,10.3 16.3,9.1 16,10.3 14.4,8.9 16,10.3 17.6,11.8 16,10.3 16.2,10.8 16,10.3 15.8,9.9 16,10.3 15.7,10.3 
			16,10.3 16.3,10.4 16,10.3 20.6,15.2 16,10.3 11.4,5.5 16,10.3 14.3,13.4 16,10.3 17.6,7.3 16,10.3 16.4,15.6 16,10.3 15.5,5.1 
			16,10.3 10.7,6.9 16,10.3 21.3,13.8 16,10.3 16,10.5 16,10.3 16,10.2 16,10.3 15.8,10.2 16,10.3 16.2,10.5 		"/>
		
			<radialGradient id="SVGID_00000084490223632160994040000004644452660637270157_" cx="19.8053" cy="19.5376" r="0.3656" gradientTransform="matrix(2.2445 -3.3996 5.4316 5.9978 -134.5842 -39.5052)" gradientUnits="userSpaceOnUse">
			<stop  offset="0" style="stop-color:#FFFFFF"/>
			<stop  offset="0.73" style="stop-color:#FFFFFF"/>
			<stop  offset="1" style="stop-color:#FFFFFF"/>
		</radialGradient>
		<path style="opacity:0.15;fill:url(#SVGID_00000084490223632160994040000004644452660637270157_);" d="M15.2,11.6
			c1.1,1.2,2.4,1.6,2.8,0.9c0.5-0.7-0.1-2.2-1.2-3.4S14.5,7.5,14,8.2S14.1,10.4,15.2,11.6z"/>
		
			<radialGradient id="SVGID_00000033344091329869678180000002376283774108201650_" cx="19.8053" cy="19.5376" r="0.1828" gradientTransform="matrix(2.2445 -3.3996 5.4316 5.9978 -134.5842 -39.5052)" gradientUnits="userSpaceOnUse">
			<stop  offset="0.15" style="stop-color:#FFFFFF"/>
			<stop  offset="0.45" style="stop-color:#FFFFFF"/>
			<stop  offset="0.85" style="stop-color:#FFFFFF"/>
			<stop  offset="0.9" style="stop-color:#FFFFFF"/>
			<stop  offset="0.909" style="stop-color:#FFFFFF"/>
			<stop  offset="1" style="stop-color:#FFFFFF"/>
		</radialGradient>
		<path style="opacity:0.5;fill:url(#SVGID_00000033344091329869678180000002376283774108201650_);" d="M15.6,11
			c0.5,0.6,1.2,0.8,1.4,0.5c0.2-0.3,0-1.1-0.6-1.7c-0.5-0.6-1.2-0.8-1.4-0.5C14.8,9.6,15,10.4,15.6,11z"/>
		
			<radialGradient id="SVGID_00000023273515715405991570000001828067400274324897_" cx="19.8053" cy="19.5376" r="0.1523" gradientTransform="matrix(2.2445 -3.3996 5.4316 5.9978 -134.5842 -39.5052)" gradientUnits="userSpaceOnUse">
			<stop  offset="0.15" style="stop-color:#FFFFFF"/>
			<stop  offset="0.2824" style="stop-color:#C2C2C2"/>
			<stop  offset="0.4253" style="stop-color:#888888"/>
			<stop  offset="0.5636" style="stop-color:#575757"/>
			<stop  offset="0.6936" style="stop-color:#313131"/>
			<stop  offset="0.8134" style="stop-color:#161616"/>
			<stop  offset="0.9192" style="stop-color:#060606"/>
			<stop  offset="1" style="stop-color:#000000"/>
		</radialGradient>
		<path style="fill:url(#SVGID_00000023273515715405991570000001828067400274324897_);" d="M15.6,10.9c0.5,0.5,1,0.7,1.2,0.4
			c0.2-0.3,0-0.9-0.5-1.4c-0.5-0.5-1-0.7-1.2-0.4C15,9.7,15.2,10.4,15.6,10.9z"/>
		<polyline class="st12" points="16,10.3 16.5,11.2 16,10.3 15.5,9.5 16,10.3 15.4,10.4 16,10.3 16.6,10.3 16,10.3 20.3,14.9 
			16,10.3 11.7,5.8 16,10.3 14.4,13.2 16,10.3 17.6,7.5 16,10.3 15.9,10.6 16,10.3 16.1,10.1 16,10.3 15.7,10.1 16,10.3 16.3,10.6 
			16,10.3 17,14.9 16,10.3 14.9,5.8 16,10.3 11.9,8.3 16,10.3 20.1,12.4 16,10.3 17.4,13.3 16,10.3 14.6,7.4 16,10.3 13.9,10.1 
			16,10.3 18.1,10.6 16,10.3 15.6,13 16,10.3 16.4,7.7 16,10.3 12.9,7.7 16,10.3 19.1,13 16,10.3 16.6,15.6 16,10.3 15.4,5.1 
			16,10.3 10.8,7.2 16,10.3 21.2,13.5 16,10.3 16.5,11.5 16,10.3 15.5,9.2 16,10.3 15.1,10.1 16,10.3 16.9,10.6 16,10.3 20.8,14.9 
			16,10.3 11.2,5.8 16,10.3 14.8,14 16,10.3 17.2,6.7 16,10.3 17.1,13.3 16,10.3 14.8,7.4 16,10.3 13.7,9.8 16,10.3 18.2,10.9 
			16,10.3 15.7,11.6 16,10.3 16.3,9.1 16,10.3 14.4,8.9 16,10.3 17.6,11.8 16,10.3 16.2,10.8 16,10.3 15.8,9.9 16,10.3 15.7,10.3 
			16,10.3 16.3,10.4 16,10.3 20.6,15.2 16,10.3 11.4,5.5 16,10.3 14.3,13.4 16,10.3 17.6,7.3 16,10.3 16.4,15.6 16,10.3 15.5,5.1 
			16,10.3 10.7,6.9 16,10.3 21.3,13.8 16,10.3 16,10.5 16,10.3 16,10.2 16,10.3 15.8,10.2 16,10.3 16.2,10.5 		"/>
	</g>
	<g>
		<line class="st4" x1="8.9" y1="10.1" x2="9.3" y2="10.4"/>
		<ellipse class="st4" cx="8.9" cy="10.1" rx="0.4" ry="0.5"/>
		<ellipse class="st4" cx="8.9" cy="10.1" rx="0.5" ry="0.6"/>
		<polyline class="st4" points="8.9,10.1 8.7,10.5 8.9,10.1 9.1,9.7 8.9,10.1 8.6,9.9 8.9,10.1 9.2,10.3 8.9,10.1 9,12.7 8.9,10.1 
			8.8,7.5 8.9,10.1 6.8,10.2 8.9,10.1 11,10 8.9,10.1 8.8,10.1 8.9,10.1 9,10.1 8.9,10.1 8.9,9.9 8.9,10.1 8.9,10.3 8.9,10.1 
			7.3,11.5 8.9,10.1 10.5,8.7 8.9,10.1 7.7,8.2 8.9,10.1 10.1,12 8.9,10.1 8.2,11.3 8.9,10.1 9.6,8.9 8.9,10.1 7.9,9.3 8.9,10.1 
			9.9,10.9 8.9,10.1 7.5,10.6 8.9,10.1 10.3,9.6 8.9,10.1 8.5,8.4 8.9,10.1 9.3,11.8 8.9,10.1 6.8,11.5 8.9,10.1 11,8.7 8.9,10.1 
			7.7,7.6 8.9,10.1 10.1,12.6 8.9,10.1 8.6,10.5 8.9,10.1 9.2,9.7 8.9,10.1 8.5,9.7 8.9,10.1 9.3,10.5 8.9,10.1 9.2,12.8 8.9,10.1 
			8.6,7.4 8.9,10.1 6.6,10.5 8.9,10.1 11.2,9.7 8.9,10.1 8.1,11.2 8.9,10.1 9.7,9 8.9,10.1 8,9.2 8.9,10.1 9.8,11 8.9,10.1 
			8.2,10.3 8.9,10.1 9.6,9.9 8.9,10.1 8.7,9.2 8.9,10.1 9.1,11 8.9,10.1 8.8,10.3 8.9,10.1 9,9.9 8.9,10.1 8.8,10 8.9,10.1 9,10.2 
			8.9,10.1 9,12.8 8.9,10.1 8.8,7.4 8.9,10.1 6.7,10.2 8.9,10.1 11.1,10 8.9,10.1 6.7,11.5 8.9,10.1 11.1,8.7 8.9,10.1 7.8,7.5 
			8.9,10.1 10,12.7 8.9,10.1 8.8,10.1 8.9,10.1 9,10.1 8.9,10.1 8.9,10 8.9,10.1 8.9,10.2 		"/>
		
			<radialGradient id="SVGID_00000116211513591128679670000014289441867797961398_" cx="18.6476" cy="18.9659" r="0.1968" gradientTransform="matrix(5.0658 0 0 6.0986 -85.5641 -105.5701)" gradientUnits="userSpaceOnUse">
			<stop  offset="0" style="stop-color:#FFFFFF"/>
			<stop  offset="0.73" style="stop-color:#FFFFFF"/>
			<stop  offset="1" style="stop-color:#FFFFFF"/>
		</radialGradient>
		
			<ellipse style="opacity:0.15;fill:url(#SVGID_00000116211513591128679670000014289441867797961398_);" cx="8.9" cy="10.1" rx="1" ry="1.2"/>
		
			<radialGradient id="SVGID_00000138559857034214886010000016404492584196409009_" cx="18.6476" cy="18.9659" r="9.837518e-02" gradientTransform="matrix(5.0658 0 0 6.0986 -85.5641 -105.5701)" gradientUnits="userSpaceOnUse">
			<stop  offset="0.15" style="stop-color:#FFFFFF"/>
			<stop  offset="0.45" style="stop-color:#FFFFFF"/>
			<stop  offset="0.85" style="stop-color:#FFFFFF"/>
			<stop  offset="0.9" style="stop-color:#FFFFFF"/>
			<stop  offset="0.909" style="stop-color:#FFFFFF"/>
			<stop  offset="1" style="stop-color:#FFFFFF"/>
		</radialGradient>
		
			<ellipse style="opacity:0.5;fill:url(#SVGID_00000138559857034214886010000016404492584196409009_);" cx="8.9" cy="10.1" rx="0.5" ry="0.6"/>
		
			<radialGradient id="SVGID_00000154389980645502467010000012544168575157164188_" cx="18.6476" cy="18.9659" r="8.197924e-02" gradientTransform="matrix(5.0658 0 0 6.0986 -85.5641 -105.5701)" gradientUnits="userSpaceOnUse">
			<stop  offset="0.15" style="stop-color:#FFFFFF"/>
			<stop  offset="0.2824" style="stop-color:#C2C2C2"/>
			<stop  offset="0.4253" style="stop-color:#888888"/>
			<stop  offset="0.5636" style="stop-color:#575757"/>
			<stop  offset="0.6936" style="stop-color:#313131"/>
			<stop  offset="0.8134" style="stop-color:#161616"/>
			<stop  offset="0.9192" style="stop-color:#060606"/>
			<stop  offset="1" style="stop-color:#000000"/>
		</radialGradient>
		<ellipse style="fill:url(#SVGID_00000154389980645502467010000012544168575157164188_);" cx="8.9" cy="10.1" rx="0.4" ry="0.5"/>
		<polyline class="st16" points="8.9,10.1 8.7,10.5 8.9,10.1 9.1,9.7 8.9,10.1 8.6,9.9 8.9,10.1 9.2,10.3 8.9,10.1 9,12.7 8.9,10.1 
			8.8,7.5 8.9,10.1 6.8,10.2 8.9,10.1 11,10 8.9,10.1 8.8,10.1 8.9,10.1 9,10.1 8.9,10.1 8.9,9.9 8.9,10.1 8.9,10.3 8.9,10.1 
			7.3,11.5 8.9,10.1 10.5,8.7 8.9,10.1 7.7,8.2 8.9,10.1 10.1,12 8.9,10.1 8.2,11.3 8.9,10.1 9.6,8.9 8.9,10.1 7.9,9.3 8.9,10.1 
			9.9,10.9 8.9,10.1 7.5,10.6 8.9,10.1 10.3,9.6 8.9,10.1 8.5,8.4 8.9,10.1 9.3,11.8 8.9,10.1 6.8,11.5 8.9,10.1 11,8.7 8.9,10.1 
			7.7,7.6 8.9,10.1 10.1,12.6 8.9,10.1 8.6,10.5 8.9,10.1 9.2,9.7 8.9,10.1 8.5,9.7 8.9,10.1 9.3,10.5 8.9,10.1 9.2,12.8 8.9,10.1 
			8.6,7.4 8.9,10.1 6.6,10.5 8.9,10.1 11.2,9.7 8.9,10.1 8.1,11.2 8.9,10.1 9.7,9 8.9,10.1 8,9.2 8.9,10.1 9.8,11 8.9,10.1 
			8.2,10.3 8.9,10.1 9.6,9.9 8.9,10.1 8.7,9.2 8.9,10.1 9.1,11 8.9,10.1 8.8,10.3 8.9,10.1 9,9.9 8.9,10.1 8.8,10 8.9,10.1 9,10.2 
			8.9,10.1 9,12.8 8.9,10.1 8.8,7.4 8.9,10.1 6.7,10.2 8.9,10.1 11.1,10 8.9,10.1 6.7,11.5 8.9,10.1 11.1,8.7 8.9,10.1 7.8,7.5 
			8.9,10.1 10,12.7 8.9,10.1 8.8,10.1 8.9,10.1 9,10.1 8.9,10.1 8.9,10 8.9,10.1 8.9,10.2 		"/>
	</g>
	<g>
		<line class="st4" x1="-15.5" y1="-5.6" x2="-14.3" y2="-4.7"/>
		<ellipse class="st4" cx="-15.5" cy="-5.6" rx="1.1" ry="1.4"/>
		<ellipse class="st4" cx="-15.5" cy="-5.6" rx="1.3" ry="1.7"/>
		<polyline class="st4" points="-15.5,-5.6 -15.9,-4.5 -15.5,-5.6 -15,-6.6 -15.5,-5.6 -16.3,-6.1 -15.5,-5.6 -14.6,-5 -15.5,-5.6 
			-15.3,1.6 -15.5,-5.6 -15.6,-12.8 -15.5,-5.6 -21,-5.3 -15.5,-5.6 -9.9,-5.8 -15.5,-5.6 -15.8,-5.5 -15.5,-5.6 -15.1,-5.7 
			-15.5,-5.6 -15.5,-6.1 -15.5,-5.6 -15.4,-5.1 -15.5,-5.6 -19.6,-1.6 -15.5,-5.6 -11.3,-9.6 -15.5,-5.6 -18.5,-11 -15.5,-5.6 
			-12.4,-0.2 -15.5,-5.6 -17.2,-2.2 -15.5,-5.6 -13.7,-8.9 -15.5,-5.6 -18,-7.8 -15.5,-5.6 -12.9,-3.4 -15.5,-5.6 -19.2,-4.3 
			-15.5,-5.6 -11.8,-6.9 -15.5,-5.6 -16.5,-10.4 -15.5,-5.6 -14.4,-0.8 -15.5,-5.6 -21,-1.6 -15.5,-5.6 -9.9,-9.6 -15.5,-5.6 
			-18.5,-12.7 -15.5,-5.6 -12.4,1.6 -15.5,-5.6 -16.3,-4.4 -15.5,-5.6 -14.7,-6.8 -15.5,-5.6 -16.4,-6.6 -15.5,-5.6 -14.5,-4.5 
			-15.5,-5.6 -14.6,2.1 -15.5,-5.6 -16.4,-13.3 -15.5,-5.6 -21.4,-4.4 -15.5,-5.6 -9.5,-6.7 -15.5,-5.6 -17.4,-2.6 -15.5,-5.6 
			-13.5,-8.6 -15.5,-5.6 -17.8,-8.1 -15.5,-5.6 -13.1,-3 -15.5,-5.6 -17.4,-5.1 -15.5,-5.6 -13.6,-6.1 -15.5,-5.6 -15.9,-8 
			-15.5,-5.6 -15.1,-3.1 -15.5,-5.6 -15.7,-5.1 -15.5,-5.6 -15.2,-6.1 -15.5,-5.6 -15.8,-5.9 -15.5,-5.6 -15.1,-5.2 -15.5,-5.6 
			-15.2,2 -15.5,-5.6 -15.7,-13.2 -15.5,-5.6 -21.3,-5.2 -15.5,-5.6 -9.6,-5.9 -15.5,-5.6 -21.2,-1.7 -15.5,-5.6 -9.7,-9.4 
			-15.5,-5.6 -18.4,-13 -15.5,-5.6 -12.5,1.9 -15.5,-5.6 -15.7,-5.4 -15.5,-5.6 -15.3,-5.7 -15.5,-5.6 -15.6,-5.8 -15.5,-5.6 
			-15.4,-5.3 		"/>
		
			<radialGradient id="SVGID_00000162320463110348996300000012637690559807500942_" cx="15.0354" cy="17.4803" r="0.3656" gradientTransform="matrix(7.1422 0 0 9.2367 -122.8436 -167.0359)" gradientUnits="userSpaceOnUse">
			<stop  offset="0" style="stop-color:#FFFFFF"/>
			<stop  offset="0.73" style="stop-color:#FFFFFF"/>
			<stop  offset="1" style="stop-color:#FFFFFF"/>
		</radialGradient>
		
			<ellipse style="opacity:0.15;fill:url(#SVGID_00000162320463110348996300000012637690559807500942_);" cx="-15.5" cy="-5.6" rx="2.6" ry="3.4"/>
		
			<radialGradient id="SVGID_00000138562723871694927530000007710824874087330719_" cx="15.0354" cy="17.4803" r="0.1828" gradientTransform="matrix(7.1422 0 0 9.2367 -122.8436 -167.0359)" gradientUnits="userSpaceOnUse">
			<stop  offset="0.15" style="stop-color:#FFFFFF"/>
			<stop  offset="0.45" style="stop-color:#FFFFFF"/>
			<stop  offset="0.85" style="stop-color:#FFFFFF"/>
			<stop  offset="0.9" style="stop-color:#FFFFFF"/>
			<stop  offset="0.909" style="stop-color:#FFFFFF"/>
			<stop  offset="1" style="stop-color:#FFFFFF"/>
		</radialGradient>
		
			<ellipse style="opacity:0.5;fill:url(#SVGID_00000138562723871694927530000007710824874087330719_);" cx="-15.5" cy="-5.6" rx="1.3" ry="1.7"/>
		
			<radialGradient id="SVGID_00000033366820375287987370000003408739376712584114_" cx="15.0354" cy="17.4803" r="0.1523" gradientTransform="matrix(7.1422 0 0 9.2367 -122.8436 -167.0359)" gradientUnits="userSpaceOnUse">
			<stop  offset="0.15" style="stop-color:#FFFFFF"/>
			<stop  offset="0.2824" style="stop-color:#C2C2C2"/>
			<stop  offset="0.4253" style="stop-color:#888888"/>
			<stop  offset="0.5636" style="stop-color:#575757"/>
			<stop  offset="0.6936" style="stop-color:#313131"/>
			<stop  offset="0.8134" style="stop-color:#161616"/>
			<stop  offset="0.9192" style="stop-color:#060606"/>
			<stop  offset="1" style="stop-color:#000000"/>
		</radialGradient>
		
			<ellipse style="fill:url(#SVGID_00000033366820375287987370000003408739376712584114_);" cx="-15.5" cy="-5.6" rx="1.1" ry="1.4"/>
		<polyline class="st20" points="-15.5,-5.6 -15.9,-4.5 -15.5,-5.6 -15,-6.6 -15.5,-5.6 -16.3,-6.1 -15.5,-5.6 -14.6,-5 -15.5,-5.6 
			-15.3,1.6 -15.5,-5.6 -15.6,-12.8 -15.5,-5.6 -21,-5.3 -15.5,-5.6 -9.9,-5.8 -15.5,-5.6 -15.8,-5.5 -15.5,-5.6 -15.1,-5.7 
			-15.5,-5.6 -15.5,-6.1 -15.5,-5.6 -15.4,-5.1 -15.5,-5.6 -19.6,-1.6 -15.5,-5.6 -11.3,-9.6 -15.5,-5.6 -18.5,-11 -15.5,-5.6 
			-12.4,-0.2 -15.5,-5.6 -17.2,-2.2 -15.5,-5.6 -13.7,-8.9 -15.5,-5.6 -18,-7.8 -15.5,-5.6 -12.9,-3.4 -15.5,-5.6 -19.2,-4.3 
			-15.5,-5.6 -11.8,-6.9 -15.5,-5.6 -16.5,-10.4 -15.5,-5.6 -14.4,-0.8 -15.5,-5.6 -21,-1.6 -15.5,-5.6 -9.9,-9.6 -15.5,-5.6 
			-18.5,-12.7 -15.5,-5.6 -12.4,1.6 -15.5,-5.6 -16.3,-4.4 -15.5,-5.6 -14.7,-6.8 -15.5,-5.6 -16.4,-6.6 -15.5,-5.6 -14.5,-4.5 
			-15.5,-5.6 -14.6,2.1 -15.5,-5.6 -16.4,-13.3 -15.5,-5.6 -21.4,-4.4 -15.5,-5.6 -9.5,-6.7 -15.5,-5.6 -17.4,-2.6 -15.5,-5.6 
			-13.5,-8.6 -15.5,-5.6 -17.8,-8.1 -15.5,-5.6 -13.1,-3 -15.5,-5.6 -17.4,-5.1 -15.5,-5.6 -13.6,-6.1 -15.5,-5.6 -15.9,-8 
			-15.5,-5.6 -15.1,-3.1 -15.5,-5.6 -15.7,-5.1 -15.5,-5.6 -15.2,-6.1 -15.5,-5.6 -15.8,-5.9 -15.5,-5.6 -15.1,-5.2 -15.5,-5.6 
			-15.2,2 -15.5,-5.6 -15.7,-13.2 -15.5,-5.6 -21.3,-5.2 -15.5,-5.6 -9.6,-5.9 -15.5,-5.6 -21.2,-1.7 -15.5,-5.6 -9.7,-9.4 
			-15.5,-5.6 -18.4,-13 -15.5,-5.6 -12.5,1.9 -15.5,-5.6 -15.7,-5.4 -15.5,-5.6 -15.3,-5.7 -15.5,-5.6 -15.6,-5.8 -15.5,-5.6 
			-15.4,-5.3 		"/>
	</g>
	<g>
		<line class="st4" x1="-2.8" y1="-7.6" x2="0" y2="-5.6"/>
		<ellipse transform="matrix(0.6942 -0.7198 0.7198 0.6942 4.6364 -4.3496)" class="st4" cx="-2.8" cy="-7.6" rx="0.5" ry="5.7"/>
		<ellipse transform="matrix(0.6942 -0.7198 0.7198 0.6942 4.6364 -4.3496)" class="st4" cx="-2.8" cy="-7.6" rx="0.6" ry="6.8"/>
		<polyline class="st4" points="-2.8,-7.6 0.2,-4.5 -2.8,-7.6 -5.8,-10.8 -2.8,-7.6 -4.6,-8.9 -2.8,-7.6 -1,-6.4 -2.8,-7.6 
			18.2,12.4 -2.8,-7.6 -23.8,-27.7 -2.8,-7.6 -3.4,-4.7 -2.8,-7.6 -2.2,-10.6 -2.8,-7.6 -2.6,-7.2 -2.8,-7.6 -3,-8.1 -2.8,-7.6 
			-4.3,-9 -2.8,-7.6 -1.3,-6.3 -2.8,-7.6 7.8,5.2 -2.8,-7.6 -13.4,-20.5 -2.8,-7.6 -19.2,-21.4 -2.8,-7.6 13.6,6.1 -2.8,-7.6 
			6.5,2.4 -2.8,-7.6 -12.1,-17.7 -2.8,-7.6 -9.9,-12.8 -2.8,-7.6 4.3,-2.5 -2.8,-7.6 0.1,-2.4 -2.8,-7.6 -5.7,-12.8 -2.8,-7.6 
			-17,-20.6 -2.8,-7.6 11.4,5.3 -2.8,-7.6 7.5,5.8 -2.8,-7.6 -13.1,-21.1 -2.8,-7.6 -24.3,-26.4 -2.8,-7.6 18.7,11.1 -2.8,-7.6 
			0.6,-3.9 -2.8,-7.6 -6.2,-11.4 -2.8,-7.6 -6.1,-10.2 -2.8,-7.6 0.5,-5.1 -2.8,-7.6 19.9,13.6 -2.8,-7.6 -25.5,-28.9 -2.8,-7.6 
			-0.8,-1.9 -2.8,-7.6 -4.8,-13.4 -2.8,-7.6 5.5,1.6 -2.8,-7.6 -11.1,-16.9 -2.8,-7.6 -10.8,-13.8 -2.8,-7.6 5.2,-1.4 -2.8,-7.6 
			-1.7,-5.4 -2.8,-7.6 -3.9,-9.9 -2.8,-7.6 -10.1,-14.4 -2.8,-7.6 4.5,-0.9 -2.8,-7.6 -1.4,-6.1 -2.8,-7.6 -4.2,-9.1 -2.8,-7.6 
			-3.9,-8.4 -2.8,-7.6 -1.7,-6.8 -2.8,-7.6 19.4,13.6 -2.8,-7.6 -25,-28.8 -2.8,-7.6 -3.2,-4.2 -2.8,-7.6 -2.4,-11 -2.8,-7.6 7,5.5 
			-2.8,-7.6 -12.6,-20.8 -2.8,-7.6 -25.2,-27.2 -2.8,-7.6 19.6,12 -2.8,-7.6 -2.5,-7.2 -2.8,-7.6 -3.1,-8.1 -2.8,-7.6 -3.6,-8.3 
			-2.8,-7.6 -2,-6.9 		"/>
		
			<radialGradient id="SVGID_00000054970350164871953840000016128489590097095594_" cx="27.5845" cy="16.7597" r="0.3656" gradientTransform="matrix(1.6882 -2.9392 26.8921 25.8335 -500.0702 -359.5153)" gradientUnits="userSpaceOnUse">
			<stop  offset="0" style="stop-color:#FFFFFF"/>
			<stop  offset="0.73" style="stop-color:#FFFFFF"/>
			<stop  offset="1" style="stop-color:#FFFFFF"/>
		</radialGradient>
		<path style="opacity:0.15;fill:url(#SVGID_00000054970350164871953840000016128489590097095594_);" d="M-3.4-6.6
			C2-1.3,6.7,2.4,7,1.8C7.4,1.2,3.2-3.5-2.2-8.7s-10.1-9-10.4-8.4C-13-16.5-8.8-11.8-3.4-6.6z"/>
		
			<radialGradient id="SVGID_00000041259318956215474900000010907612455581718177_" cx="27.5845" cy="16.7597" r="0.1828" gradientTransform="matrix(1.6882 -2.9392 26.8921 25.8335 -500.0702 -359.5153)" gradientUnits="userSpaceOnUse">
			<stop  offset="0.15" style="stop-color:#FFFFFF"/>
			<stop  offset="0.45" style="stop-color:#FFFFFF"/>
			<stop  offset="0.85" style="stop-color:#FFFFFF"/>
			<stop  offset="0.9" style="stop-color:#FFFFFF"/>
			<stop  offset="0.909" style="stop-color:#FFFFFF"/>
			<stop  offset="1" style="stop-color:#FFFFFF"/>
		</radialGradient>
		<path style="opacity:0.5;fill:url(#SVGID_00000041259318956215474900000010907612455581718177_);" d="M-3.1-7.1
			c2.7,2.6,5.1,4.5,5.2,4.2S0.2-5.6-2.5-8.2s-5.1-4.5-5.2-4.2C-7.9-12.1-5.8-9.7-3.1-7.1z"/>
		
			<radialGradient id="SVGID_00000020378583352043594520000015796871685120888982_" cx="27.5845" cy="16.7597" r="0.1523" gradientTransform="matrix(1.6882 -2.9392 26.8921 25.8335 -500.0702 -359.5153)" gradientUnits="userSpaceOnUse">
			<stop  offset="0.15" style="stop-color:#FFFFFF"/>
			<stop  offset="0.2824" style="stop-color:#C2C2C2"/>
			<stop  offset="0.4253" style="stop-color:#888888"/>
			<stop  offset="0.5636" style="stop-color:#575757"/>
			<stop  offset="0.6936" style="stop-color:#313131"/>
			<stop  offset="0.8134" style="stop-color:#161616"/>
			<stop  offset="0.9192" style="stop-color:#060606"/>
			<stop  offset="1" style="stop-color:#000000"/>
		</radialGradient>
		<path style="fill:url(#SVGID_00000020378583352043594520000015796871685120888982_);" d="M-3.1-7.2C-0.8-5,1.2-3.4,1.3-3.7
			s-1.6-2.2-3.8-4.4s-4.2-3.7-4.4-3.5C-7-11.3-5.3-9.4-3.1-7.2z"/>
		<polyline class="st24" points="-2.8,-7.6 0.2,-4.5 -2.8,-7.6 -5.8,-10.8 -2.8,-7.6 -4.6,-8.9 -2.8,-7.6 -1,-6.4 -2.8,-7.6 
			18.2,12.4 -2.8,-7.6 -23.8,-27.7 -2.8,-7.6 -3.4,-4.7 -2.8,-7.6 -2.2,-10.6 -2.8,-7.6 -2.6,-7.2 -2.8,-7.6 -3,-8.1 -2.8,-7.6 
			-4.3,-9 -2.8,-7.6 -1.3,-6.3 -2.8,-7.6 7.8,5.2 -2.8,-7.6 -13.4,-20.5 -2.8,-7.6 -19.2,-21.4 -2.8,-7.6 13.6,6.1 -2.8,-7.6 
			6.5,2.4 -2.8,-7.6 -12.1,-17.7 -2.8,-7.6 -9.9,-12.8 -2.8,-7.6 4.3,-2.5 -2.8,-7.6 0.1,-2.4 -2.8,-7.6 -5.7,-12.8 -2.8,-7.6 
			-17,-20.6 -2.8,-7.6 11.4,5.3 -2.8,-7.6 7.5,5.8 -2.8,-7.6 -13.1,-21.1 -2.8,-7.6 -24.3,-26.4 -2.8,-7.6 18.7,11.1 -2.8,-7.6 
			0.6,-3.9 -2.8,-7.6 -6.2,-11.4 -2.8,-7.6 -6.1,-10.2 -2.8,-7.6 0.5,-5.1 -2.8,-7.6 19.9,13.6 -2.8,-7.6 -25.5,-28.9 -2.8,-7.6 
			-0.8,-1.9 -2.8,-7.6 -4.8,-13.4 -2.8,-7.6 5.5,1.6 -2.8,-7.6 -11.1,-16.9 -2.8,-7.6 -10.8,-13.8 -2.8,-7.6 5.2,-1.4 -2.8,-7.6 
			-1.7,-5.4 -2.8,-7.6 -3.9,-9.9 -2.8,-7.6 -10.1,-14.4 -2.8,-7.6 4.5,-0.9 -2.8,-7.6 -1.4,-6.1 -2.8,-7.6 -4.2,-9.1 -2.8,-7.6 
			-3.9,-8.4 -2.8,-7.6 -1.7,-6.8 -2.8,-7.6 19.4,13.6 -2.8,-7.6 -25,-28.8 -2.8,-7.6 -3.2,-4.2 -2.8,-7.6 -2.4,-11 -2.8,-7.6 7,5.5 
			-2.8,-7.6 -12.6,-20.8 -2.8,-7.6 -25.2,-27.2 -2.8,-7.6 19.6,12 -2.8,-7.6 -2.5,-7.2 -2.8,-7.6 -3.1,-8.1 -2.8,-7.6 -3.6,-8.3 
			-2.8,-7.6 -2,-6.9 		"/>
	</g>
</g>
</svg>
